<svg width="24" height="24" viewBox="0 0 24 24" fill="none" xmlns="http://www.w3.org/2000/svg">
<path d="M2 17.9261C2 17.3187 2.15479 16.7214 2.44975 16.1904L8.63566 5.0558C9.18399 4.06881 10.1381 3.37239 11.2452 3.15096V3.15096C11.7435 3.05131 12.2565 3.05131 12.7548 3.15096V3.15096C13.8619 3.37239 14.816 4.06881 15.3643 5.05581L21.5502 16.1904C21.8452 16.7214 22 17.3187 22 17.9261V17.9261C22 19.8999 20.3999 21.5 18.4261 21.5H5.57391C3.60009 21.5 2 19.8999 2 17.9261V17.9261Z" stroke="#717171" stroke-width="1.5"/>
<path d="M12 9L12 13" stroke="#717171" stroke-width="1.5" stroke-linecap="round" stroke-linejoin="round"/>
<path d="M12 16L12 16.5" stroke="#717171" stroke-width="1.5" stroke-linecap="round" stroke-linejoin="round"/>
</svg>
