<svg width="24" height="24" viewBox="0 0 24 24" fill="none" xmlns="http://www.w3.org/2000/svg">
<path d="M5.07142 8.00011C5.80911 6.72239 6.88577 5.67356 8.18235 4.96957C9.47894 4.26558 10.945 3.93386 12.4183 4.01107C13.8917 4.08829 15.315 4.57144 16.5309 5.4071C17.7468 6.24276 18.7079 7.39839 19.308 8.74622M3.23145 5.51547L3.96086 8.67501C4.08509 9.21314 4.62204 9.54867 5.16017 9.42444L8.31971 8.69502M18.9279 16C18.1902 17.2777 17.1135 18.3265 15.8169 19.0305C14.5203 19.7345 13.0543 20.0663 11.581 19.989C10.1076 19.9118 8.68431 19.4287 7.46841 18.593C6.25252 17.7573 5.29139 16.6017 4.6913 15.2539M20.7678 18.4846L20.0384 15.3251C19.9142 14.787 19.3772 14.4514 18.8391 14.5757L15.6796 15.3051" stroke="#717171" stroke-width="1.5" stroke-linecap="round"/>
</svg>
