<svg width="24" height="24" viewBox="0 0 24 24" fill="none" xmlns="http://www.w3.org/2000/svg">
<rect x="4" y="9" width="16" height="12" rx="4" stroke="#717171" stroke-width="1.5"/>
<path d="M12 16L12 14" stroke="#717171" stroke-width="1.5" stroke-linecap="round" stroke-linejoin="round"/>
<path d="M14.6667 5.14229C14.9035 5.48217 15.3709 5.56575 15.7108 5.32899C16.0507 5.09222 16.1343 4.62476 15.8975 4.28489L14.6667 5.14229ZM8.27819 4.04862C8.02082 4.37318 8.07528 4.84492 8.39984 5.10228C8.72439 5.35965 9.19613 5.30519 9.4535 4.98064L8.27819 4.04862ZM8.75 9V7H7.25V9H8.75ZM8.75 7C8.75 5.20508 10.2051 3.75 12 3.75V2.25C9.37665 2.25 7.25 4.37665 7.25 7H8.75ZM15.8975 4.28489C15.331 3.4717 14.5244 2.85606 13.5905 2.52421L13.0883 3.93762C13.7272 4.16467 14.2791 4.5859 14.6667 5.14229L15.8975 4.28489ZM13.5905 2.52421C12.6567 2.19236 11.6424 2.16091 10.6898 2.43426L11.1036 3.87607C11.7554 3.68904 12.4493 3.71056 13.0883 3.93762L13.5905 2.52421ZM10.6898 2.43426C9.73722 2.70762 8.89397 3.27209 8.27819 4.04862L9.4535 4.98064C9.87482 4.44933 10.4518 4.06311 11.1036 3.87607L10.6898 2.43426Z" fill="#717171"/>
</svg>
